<svg xmlns:inkscape="http://www.inkscape.org/namespaces/inkscape" xmlns:sodipodi="http://sodipodi.sourceforge.net/DTD/sodipodi-0.dtd" xmlns="http://www.w3.org/2000/svg" xmlns:svg="http://www.w3.org/2000/svg" xmlns:rdf="http://www.w3.org/1999/02/22-rdf-syntax-ns#" xmlns:cc="http://creativecommons.org/ns#" xmlns:dc="http://purl.org/dc/elements/1.1/" viewBox="0 0 16.933333 21.1666675" version="1.1" x="0px" y="0px"><g><path style="color:#000000;" d="m 8.4677066,0.79375167 a 0.26459186,0.26459186 0 0 0 -0.26563,0.26355803 v 1.929663 1.225806 l -7.00239,3.059347 a 0.26461832,0.26461832 0 0 0 -0.15814,0.244438 v 1.355519 a 0.26461832,0.26461832 0 0 0 0.26563,0.263558 h 0.43565 v 6.4747563 h -0.43565 a 0.26459186,0.26459186 0 0 0 -0.26563,0.26356 0.26459186,0.26459186 0 0 0 0.26563,0.265625 h 0.70127 12.9185104 0.70127 a 0.26459186,0.26459186 0 0 0 0.26356,-0.265625 0.26459186,0.26459186 0 0 0 -0.26356,-0.26356 h -0.43771 V 9.1356407 h 0.43771 a 0.26461832,0.26461832 0 0 0 0.26356,-0.263558 v -1.355519 a 0.26461832,0.26461832 0 0 0 -0.15813,-0.244438 L 8.7312566,4.2127787 v -0.962247 h 2.6371404 a 0.26461832,0.26461832 0 0 0 0.26356,-0.263559 v -1.929663 a 0.26461832,0.26461832 0 0 0 -0.26356,-0.26355803 z m 0.26355,0.52711703 h 2.3730704 v 1.400479 H 8.7312566 Z m -0.26355,3.353913 6.8949004,3.013354 v 0.918321 H 1.5707366 v -0.918321 z m -0.0253,1.167927 c -0.52446,0.01347 -0.9514,0.4493 -0.9514,0.976717 0,0.535787 0.44089,0.97465 0.97672,0.97465 0.53582,0 0.97465,-0.438863 0.97465,-0.97465 0,-0.535788 -0.43883,-0.976717 -0.97465,-0.976717 -0.008,0 -0.017,-2.14e-4 -0.0253,0 z m 0.0253,0.529184 c 0.24995,0 0.44546,0.197863 0.44546,0.447533 0,0.249667 -0.19552,0.444949 -0.44546,0.444949 -0.24996,0 -0.44754,-0.195282 -0.44754,-0.444949 0,-0.24967 0.19758,-0.447533 0.44754,-0.447533 z m -6.1957,2.763748 H 14.661327 v 6.4747563 h -1.24027 v -4.146654 c 0,-0.587057 -0.46769,-1.07594 -1.04907,-1.07594 -0.58137,0 -1.047,0.488879 -1.047,1.07594 v 4.146654 H 9.5147066 v -4.146654 c 0,-0.587057 -0.46563,-1.07594 -1.047,-1.07594 -0.58138,0 -1.04907,0.488883 -1.04907,1.07594 v 4.146654 h -1.80874 v -4.146654 c 0,-0.587057 -0.46717,-1.07594 -1.04855,-1.07594 -0.58138,0 -1.04906,0.488883 -1.04906,1.07594 v 4.146654 h -1.24028 z m 2.28934,1.7813463 c 0.2868,0 0.51937,0.233807 0.51937,0.546756 v 4.146654 h -1.03873 v -4.146654 c 0,-0.312949 0.23257,-0.546756 0.51936,-0.546756 z m 3.90636,0 c 0.28679,0 0.5173,0.233807 0.5173,0.546756 v 4.146654 h -1.03667 v -4.146654 c 0,-0.312949 0.23257,-0.546756 0.51937,-0.546756 z m 3.9042804,0 c 0.2868,0 0.51988,0.233807 0.51988,0.546756 v 4.146654 h -1.03718 v -4.146654 c 0,-0.312944 0.23051,-0.546756 0.5173,-0.546756 z" fill="#000000" stroke-width="1" stroke-linecap="round"/></g><text x="0" y="31.933334" fill="#000000" font-size="5px" font-weight="bold" font-family="'Helvetica Neue', Helvetica, Arial-Unicode, Arial, Sans-serif">Created by Larea</text><text x="0" y="36.933334" fill="#000000" font-size="5px" font-weight="bold" font-family="'Helvetica Neue', Helvetica, Arial-Unicode, Arial, Sans-serif">from the Noun Project</text></svg>